HIERARCHY
ROOT hip
{
  OFFSET 0 0 0
  CHANNELS 6 Xposition Yposition Zposition Zrotation Yrotation Xrotation
  JOINT abdomen
  {
    OFFSET 0 20.6881 -0.73152
    CHANNELS 3 Zrotation Xrotation Yrotation
    JOINT chest
    {
      OFFSET 0 11.7043 -0.48768
      CHANNELS 3 Zrotation Xrotation Yrotation
      JOINT neck
      {
        OFFSET 0 22.1894 -2.19456
        CHANNELS 3 Zrotation Xrotation Yrotation
        JOINT head
        {
          OFFSET -0.24384 7.07133 1.2192
          CHANNELS 3 Zrotation Xrotation Yrotation
          JOINT leftEye
          {
            OFFSET 4.14528 8.04674 8.04672
            CHANNELS 3 Zrotation Xrotation Yrotation
            End Site
            {
              OFFSET 1 0 0
            }
          }
          JOINT rightEye
          {
            OFFSET -3.6576 8.04674 8.04672
            CHANNELS 3 Zrotation Xrotation Yrotation
            End Site
            {
              OFFSET 1 0 0
            }
          }
        }
      }
      JOINT rCollar
      {
        OFFSET -2.68224 19.2634 -4.8768
        CHANNELS 3 Zrotation Xrotation Yrotation
        JOINT rShldr
        {
          OFFSET -8.77824 -1.95073 1.46304
          CHANNELS 3 Zrotation Xrotation Yrotation
          JOINT rForeArm
          {
            OFFSET -28.1742 -1.7115 0.48768
            CHANNELS 3 Zrotation Xrotation Yrotation
            JOINT rHand
            {
              OFFSET -22.5879 0.773209 7.07136
              CHANNELS 3 Zrotation Xrotation Yrotation
              JOINT rThumb1
              {
                OFFSET -1.2192 -0.487915 3.41376
                CHANNELS 3 Zrotation Xrotation Yrotation
                JOINT rThumb2
                {
                  OFFSET -3.37035 -0.52449 3.41376
                  CHANNELS 3 Zrotation Xrotation Yrotation
                  End Site
                  {
                    OFFSET -1.78271 -1.18214 1.43049
                  }
                }
              }
              JOINT rIndex1
              {
                OFFSET -7.75947 0.938293 5.60832
                CHANNELS 3 Zrotation Xrotation Yrotation
                JOINT rIndex2
                {
                  OFFSET -2.54057 -0.884171 1.56538
                  CHANNELS 3 Zrotation Xrotation Yrotation
                  End Site
                  {
                    OFFSET -1.62519 -0.234802 1.16502
                  }
                }
              }
              JOINT rMid1
              {
                OFFSET -8.24714 1.18213 3.41376
                CHANNELS 3 Zrotation Xrotation Yrotation
                JOINT rMid2
                {
                  OFFSET -3.10165 -0.590103 1.0647
                  CHANNELS 3 Zrotation Xrotation Yrotation
                  End Site
                  {
                    OFFSET -2.48547 -0.328903 0.83742
                  }
                }
              }
              JOINT rRing1
              {
                OFFSET -8.82822 0.546677 1.51678
                CHANNELS 3 Zrotation Xrotation Yrotation
                JOINT rRing2
                {
                  OFFSET -2.60934 -0.819778 -0.0198488
                  CHANNELS 3 Zrotation Xrotation Yrotation
                  End Site
                  {
                    OFFSET -2.33842 -0.294052 0.168128
                  }
                }
              }
              JOINT rPinky1
              {
                OFFSET -8.27202 -0.0477905 -0.4584
                CHANNELS 3 Zrotation Xrotation Yrotation
                JOINT rPinky2
                {
                  OFFSET -1.82734 -0.647385 -0.700984
                  CHANNELS 3 Zrotation Xrotation Yrotation
                  End Site
                  {
                    OFFSET -1.69225 -0.51767 -0.607171
                  }
                }
              }
            }
          }
        }
      }
      JOINT lCollar
      {
        OFFSET 2.68224 19.2634 -4.8768
        CHANNELS 3 Zrotation Xrotation Yrotation
        JOINT lShldr
        {
          OFFSET 8.77824 -1.95073 1.46304
          CHANNELS 3 Zrotation Xrotation Yrotation
          JOINT lForeArm
          {
            OFFSET 28.1742 -1.7115 0.48768
            CHANNELS 3 Zrotation Xrotation Yrotation
            JOINT lHand
            {
              OFFSET 22.5879 0.773209 7.07136
              CHANNELS 3 Zrotation Xrotation Yrotation
              JOINT lThumb1
              {
                OFFSET 1.2192 -0.487915 3.41376
                CHANNELS 3 Zrotation Xrotation Yrotation
                JOINT lThumb2
                {
                  OFFSET 3.37035 -0.52449 3.41376
                  CHANNELS 3 Zrotation Xrotation Yrotation
                  End Site
                  {
                    OFFSET 1.78271 -1.18214 1.43049
                  }
                }
              }
              JOINT lIndex1
              {
                OFFSET 7.75947 0.938293 5.60832
                CHANNELS 3 Zrotation Xrotation Yrotation
                JOINT lIndex2
                {
                  OFFSET 2.54057 -0.884171 1.56538
                  CHANNELS 3 Zrotation Xrotation Yrotation
                  End Site
                  {
                    OFFSET 1.62519 -0.234802 1.16502
                  }
                }
              }
              JOINT lMid1
              {
                OFFSET 8.24714 1.18213 3.41376
                CHANNELS 3 Zrotation Xrotation Yrotation
                JOINT lMid2
                {
                  OFFSET 3.10165 -0.590103 1.0647
                  CHANNELS 3 Zrotation Xrotation Yrotation
                  End Site
                  {
                    OFFSET 2.48547 -0.328903 0.83742
                  }
                }
              }
              JOINT lRing1
              {
                OFFSET 8.82822 0.546677 1.51678
                CHANNELS 3 Zrotation Xrotation Yrotation
                JOINT lRing2
                {
                  OFFSET 2.60934 -0.819778 -0.0198488
                  CHANNELS 3 Zrotation Xrotation Yrotation
                  End Site
                  {
                    OFFSET 2.33842 -0.294052 0.168128
                  }
                }
              }
              JOINT lPinky1
              {
                OFFSET 8.27202 -0.0477905 -0.4584
                CHANNELS 3 Zrotation Xrotation Yrotation
                JOINT lPinky2
                {
                  OFFSET 1.82734 -0.647385 -0.700984
                  CHANNELS 3 Zrotation Xrotation Yrotation
                  End Site
                  {
                    OFFSET 1.69225 -0.51767 -0.607171
                  }
                }
              }
            }
          }
        }
      }
    }
  }
  JOINT rButtock
  {
    OFFSET -8.77824 4.35084 1.2192
    CHANNELS 3 Zrotation Xrotation Yrotation
    JOINT rThigh
    {
      OFFSET 0 -1.70687 -2.19456
      CHANNELS 3 Zrotation Xrotation Yrotation
      JOINT rShin
      {
        OFFSET 0 -36.8199 0.73152
        CHANNELS 3 Zrotation Xrotation Yrotation
        JOINT rFoot
        {
          OFFSET 0.73152 -45.1104 -5.12064
          CHANNELS 3 Zrotation Xrotation Yrotation
          End Site
          {
            OFFSET -1.1221 -3.69964 12.103
          }
        }
      }
    }
  }
  JOINT lButtock
  {
    OFFSET 8.77824 4.35084 1.2192
    CHANNELS 3 Zrotation Xrotation Yrotation
    JOINT lThigh
    {
      OFFSET 0 -1.70687 -2.19456
      CHANNELS 3 Zrotation Xrotation Yrotation
      JOINT lShin
      {
        OFFSET 0 -36.8199 0.73152
        CHANNELS 3 Zrotation Xrotation Yrotation
        JOINT lFoot
        {
          OFFSET -0.73152 -45.1104 -5.12064
          CHANNELS 3 Zrotation Xrotation Yrotation
          End Site
          {
            OFFSET 1.1221 -3.69964 12.103
          }
        }
      }
    }
  }
}
MOTION
Frames:	6
Frame Time:	0.00833333
26.6385 75.2137 41.0707 -178.655 -0.37569997 -176.834 -1.62972 4.38702 4.44037 2.3284404 -6.828981 1.3263102 -5.6137004 12.6292 -4.00972 6.4342594 -19.5523 -6.8175893 0.0 0.0 0.0 0.0 0.0 0.0 1.7741601e-15 -4.13724e-14 -8.72789e-15 22.997501 57.419903 39.433098 -26.8219 -44.4727 92.39349 -1.1783702 29.253302 4.5146 2.0849299e-10 2.5909602e-10 5.42644e-11 3.62315e-10 4.49278e-10 9.06937e-11 2.0849698e-10 2.59099e-10 5.4247298e-11 7.730911 5.47488 0.41731405 2.08491e-10 2.59098e-10 5.4257498e-11 2.90554 0.965183 0.102902 2.08499e-10 2.59097e-10 5.42612e-11 10.2786 0.73180103 0.025912303 2.08486e-10 2.5909602e-10 5.42708e-11 2.2216702 -0.733487 -0.20892 1.59909e-15 -4.13732e-14 -8.86455e-15 -10.603497 56.3747 -66.5452 27.4081 -42.811703 -89.1289 0.6987778 23.042398 -3.4271195 -1.04654e-10 1.96259e-11 -3.77386e-10 -1.86359e-10 3.92387e-11 -6.51742e-10 -1.0466e-10 1.9625999e-11 -3.77361e-10 -7.730911 5.47488 -0.41731405 -1.04652995e-10 1.9623698e-11 -3.7737702e-10 -2.90554 0.965183 -0.102902 -1.04660995e-10 1.9625e-11 -3.77383e-10 -10.2786 0.73180103 -0.025912303 -1.04656006e-10 1.96256e-11 -3.77392e-10 -2.2216702 -0.733487 0.20892 -2.03217e-16 8e-44 -3.88251e-19 7.6604815 -36.572803 1.9947106 -1.0740801 60.828503 1.7454301 -4.3799095 -22.0457 -8.37885 2.03217e-16 8e-44 3.88251e-19 -8.625201 -37.931503 -7.104251 1.1232498 61.8986 -1.8407001 7.6075006 -21.944 14.754199
26.621101 75.166306 41.108902 -178.642 -0.38900003 -176.939 -1.59158 4.48408 4.49631 2.31273 -6.8316903 1.3423002 -5.64075 12.6222 -4.03241 6.45336 -19.413801 -6.87365 0.0 0.0 0.0 0.0 0.0 0.0 1.05543005e-16 -5.0689298e-14 -1.10325e-14 21.193 55.541298 40.7719 -26.633501 -44.9307 93.3189 -1.23229 29.8352 4.62325 4.1892398e-10 6.11861e-10 -9.98344e-11 7.2370204e-10 1.05514e-09 -1.80276e-10 4.18928e-10 6.11861e-10 -9.98503e-11 7.730911 5.47488 0.41731405 4.1892198e-10 6.11861e-10 -9.98344e-11 2.90554 0.965183 0.102902 4.18929e-10 6.11861e-10 -9.9832004e-11 10.2786 0.73180103 0.025912303 4.1891599e-10 6.11861e-10 -9.98217e-11 2.2216702 -0.733487 -0.20892 -6.13012e-18 -5.0692398e-14 -1.12313e-14 -9.859198 54.231697 -67.5307 27.343803 -43.0195 -89.5261 0.7165339 23.3132 -3.47224 -2.33332e-10 1.7372799e-10 -5.26881e-10 -4.10346e-10 3.05918e-10 -9.07881e-10 -2.33337e-10 1.7372799e-10 -5.26856e-10 -7.730911 5.47488 -0.41731405 -2.33333e-10 1.73725e-10 -5.26875e-10 -2.90554 0.965183 -0.102902 -2.3334099e-10 1.73725e-10 -5.2688e-10 -10.2786 0.73180103 -0.025912303 -2.33332e-10 1.73724e-10 -5.26884e-10 -2.2216702 -0.733487 0.20892 -2.03217e-16 8e-44 -3.88251e-19 7.55408 -36.5877 1.8371297 -1.0831301 60.961704 1.7540501 -4.32941 -22.1206 -8.26171 2.03217e-16 8e-44 3.88251e-19 -8.668349 -37.9498 -7.1156597 1.1318303 62.020496 -1.8505596 7.651 -21.904202 14.847499
26.6033 75.1148 41.1543 -178.631 -0.3858 -177.023 -1.53524 4.5321603 4.58213 2.3019 -6.77247 1.3657899 -5.619231 12.631601 -4.0944805 6.3579497 -19.3522 -7.02164 0.0 0.0 0.0 0.0 0.0 0.0 -1.5126599e-15 1.02052e-13 -7.942071e-15 19.4063 53.587303 42.037304 -26.382301 -45.500797 94.4853 -1.2066097 29.558098 4.5714397 -2.75327e-10 -2.3994598e-10 2.12192e-10 -4.68736e-10 -4.04225e-10 3.73924e-10 -2.7532399e-10 -2.39947e-10 2.1217698e-10 7.730911 5.47488 0.41731405 -2.7533e-10 -2.39947e-10 2.12191e-10 2.90554 0.965183 0.102902 -2.7532202e-10 -2.39947e-10 2.1219299e-10 10.2786 0.73180103 0.025912303 -2.7533298e-10 -2.3994598e-10 2.12202e-10 2.2216702 -0.733487 -0.20892 -1.58723e-15 1.02049005e-13 -8.15949e-15 -8.886659 52.111797 -68.7126 27.252197 -43.303497 -90.07299 0.715821 23.298 -3.46981 1.91959e-10 -3.7026301e-10 -6.67748e-10 3.2125e-10 -6.3011e-10 -1.15816e-09 1.91955e-10 -3.70264e-10 -6.67727e-10 -7.730911 5.47488 -0.41731405 1.91959e-10 -3.70264e-10 -6.6774103e-10 -2.90554 0.965183 -0.102902 1.91949e-10 -3.70264e-10 -6.67748e-10 -10.2786 0.73180103 -0.025912303 1.9196e-10 -3.7026301e-10 -6.6775e-10 -2.2216702 -0.733487 0.20892 -2.03217e-16 8e-44 -3.88251e-19 7.4201207 -36.635204 1.6273195 -1.09243 61.096504 1.7623304 -4.2601795 -22.2015 -8.107911 2.03217e-16 8e-44 3.88251e-19 -8.726269 -37.989 -7.15824 1.1412299 62.152596 -1.8615998 7.6914306 -21.886501 14.927101
26.5904 75.066696 41.1799 -178.616 -0.39049995 -177.07 -1.4651399 4.57144 4.66129 2.2994304 -6.7123 1.38738 -5.5926194 12.6383 -4.1498203 6.2587404 -19.293499 -7.15663 0.0 0.0 0.0 0.0 0.0 0.0 1.99009e-17 2.29e-13 -2.2860202e-15 17.8113 51.5737 43.084103 -26.102798 -46.0715 95.6983 -1.1562601 29.002298 4.4684606 -9.543081e-10 -1.08707e-09 4.9375604e-10 -1.63612e-09 -1.85693e-09 8.75128e-10 -9.54306e-10 -1.08707e-09 4.93743e-10 7.730911 5.47488 0.41731405 -9.54313e-10 -1.08707e-09 4.93752e-10 2.90554 0.965183 0.102902 -9.54303e-10 -1.08707e-09 4.9375504e-10 10.2786 0.73180103 0.025912303 -9.54314e-10 -1.08707e-09 4.93762e-10 2.2216702 -0.733487 -0.20892 -1.9894099e-17 2.28999e-13 -2.4848101e-15 -8.0612 49.9788 -69.7042 27.152304 -43.5939 -90.64291 0.7230111 23.410997 -3.4885695 5.8055905e-10 -8.38949e-10 -6.46651e-10 9.922221e-10 -1.43836e-09 -1.12796e-09 5.80557e-10 -8.38952e-10 -6.4663497e-10 -7.730911 5.47488 -0.41731405 5.8055905e-10 -8.38948e-10 -6.4664496e-10 -2.90554 0.965183 -0.102902 5.80549e-10 -8.38947e-10 -6.46651e-10 -10.2786 0.73180103 -0.025912303 5.80561e-10 -8.38946e-10 -6.4665395e-10 -2.2216702 -0.733487 0.20892 -2.03217e-16 8e-44 -3.88251e-19 7.308101 -36.6814 1.4225098 -1.1011802 61.221996 1.7700697 -4.1947103 -22.276 -7.9632597 2.03217e-16 8e-44 3.88251e-19 -8.773939 -38.0285 -7.21767 1.1508502 62.286697 -1.87299 7.7333198 -21.8788 15.005099
26.5876 75.0255 41.206398 -178.563 -0.39509997 -177.137 -1.3611001 4.6437902 4.68682 2.31533 -6.7076907 1.3944 -5.60359 12.623899 -4.1460896 6.26129 -19.190401 -7.1590695 0.0 0.0 0.0 0.0 0.0 0.0 1.41213005e-14 1.13046996e-13 6.7462502e-15 16.510199 49.5067 43.8203 -25.841501 -46.574097 96.7768 -1.12054 28.598099 4.39428 -8.02305e-10 -8.68963e-10 2.4687402e-10 -1.3806e-09 -1.4882899e-09 4.45243e-10 -8.02301e-10 -8.68967e-10 2.46866e-10 7.730911 5.47488 0.41731405 -8.02307e-10 -8.68967e-10 2.46875e-10 2.90554 0.965183 0.102902 -8.02298e-10 -8.68967e-10 2.4687402e-10 10.2786 0.73180103 0.025912303 -8.02313e-10 -8.68964e-10 2.46879e-10 2.2216702 -0.733487 -0.20892 1.41319e-14 1.13045e-13 6.6717096e-15 -7.7172976 47.799 -70.1737 27.059801 -43.8541 -91.154106 0.77910495 24.249601 -3.62931 3.4771e-10 -4.61816e-10 -1.3468e-10 5.9996397e-10 -7.95929e-10 -2.39681e-10 3.4771e-10 -4.61823e-10 -1.34665e-10 -7.730911 5.47488 -0.41731405 3.4771e-10 -4.6181697e-10 -1.34679e-10 -2.90554 0.965183 -0.102902 3.47703e-10 -4.6181697e-10 -1.34678e-10 -10.2786 0.73180103 -0.025912303 3.47713e-10 -4.6181797e-10 -1.34686e-10 -2.2216702 -0.733487 0.20892 -2.03217e-16 8e-44 -3.88251e-19 7.28647 -36.6925 1.2697098 -1.1081501 61.321404 1.77654 -4.15721 -22.324802 -7.87748 2.03217e-16 8e-44 3.88251e-19 -8.771681 -38.053703 -7.29621 1.1606299 62.422604 -1.88452 7.7792587 -21.8769 15.0873995
26.5883 74.9855 41.226 -178.495 -0.41709998 -177.216 -1.28554 4.71388 4.6883802 2.3347802 -6.727081 1.3953302 -5.6227803 12.6019 -4.12576 6.31042 -19.0507 -7.1248994 0.0 0.0 0.0 0.0 0.0 0.0 2.51341e-14 -2.8027902e-14 9.54166e-15 15.423901 47.4033 44.3791 -25.603302 -47.002098 97.7152 -1.08499 28.187902 4.3195596 -3.7706302e-10 -3.57739e-10 -9.6164104e-11 -6.54482e-10 -6.16954e-10 -1.56962e-10 -3.77058e-10 -3.57743e-10 -9.61704e-11 7.730911 5.47488 0.41731405 -3.7706302e-10 -3.57742e-10 -9.6160906e-11 2.90554 0.965183 0.102902 -3.77054e-10 -3.57742e-10 -9.6164104e-11 10.2786 0.73180103 0.025912303 -3.77072e-10 -3.57739e-10 -9.6160906e-11 2.2216702 -0.733487 -0.20892 2.5160099e-14 -2.8029799e-14 9.54166e-15 -7.5024705 45.6219 -70.49 26.980803 -44.066998 -91.57731 0.83970517 25.087902 -3.77267 2.7111001e-11 2.34121e-11 2.8591e-10 5.4342596e-11 3.4283198e-11 4.92325e-10 2.7111001e-11 2.34025e-11 2.85926e-10 -7.730911 5.47488 -0.41731405 2.71107e-11 2.34072e-11 2.85906e-10 -2.90554 0.965183 -0.102902 2.7105299e-11 2.34064e-11 2.8591302e-10 -10.2786 0.73180103 -0.025912303 2.71144e-11 2.3404901e-11 2.859e-10 -2.2216702 -0.733487 0.20892 -2.03217e-16 8e-44 -3.88251e-19 7.2852106 -36.699703 1.1646796 -1.1147999 61.4171 1.7832301 -4.14017 -22.3596 -7.8340397 2.03217e-16 8e-44 3.88251e-19 -8.767261 -38.0693 -7.3615007 1.16981 62.5495 -1.8953999 7.8205996 -21.8927 15.153401
